HIERARCHY
ROOT Hips
{
 OFFSET 0.000000 0.000000 0.000000
 CHANNELS 6 Xposition Yposition Zposition Yrotation Xrotation Zrotation
 JOINT Chest
 {
  OFFSET 0.000000 9.585900 0.002600
  CHANNELS 3 Yrotation Xrotation Zrotation
  JOINT Chest2
  {
   OFFSET 0.000000 9.601200 -0.005300
   CHANNELS 3 Yrotation Xrotation Zrotation
   JOINT Chest3
   {
    OFFSET 0.000000 9.561800 0.000000
    CHANNELS 3 Yrotation Xrotation Zrotation
    JOINT Chest4
    {
     OFFSET 0.000000 9.552100 0.000000
     CHANNELS 3 Yrotation Xrotation Zrotation
     JOINT Neck
     {
      OFFSET 0.000000 14.453000 0.000000
      CHANNELS 3 Yrotation Xrotation Zrotation
      JOINT Head
      {
       OFFSET 0.000000 8.936500 -0.011300
       CHANNELS 3 Yrotation Xrotation Zrotation
       End Site
       {
        OFFSET 0.000000 17.073600 -0.006000
       }
      }
     }
     JOINT RightCollar
     {
      OFFSET -2.921100 9.558500 0.000000
      CHANNELS 3 Yrotation Xrotation Zrotation
      JOINT RightShoulder
      {
       OFFSET -13.519700 0.000000 0.000000
       CHANNELS 3 Yrotation Xrotation Zrotation
       JOINT RightElbow
       {
        OFFSET 0.000000 -29.696600 0.000000
        CHANNELS 3 Yrotation Xrotation Zrotation
        JOINT RightWrist
        {
         OFFSET 0.000000 -24.004700 0.000000
         CHANNELS 3 Yrotation Xrotation Zrotation
         End Site
         {
          OFFSET 0.000000 -17.728500 0.000000
         }
        }
       }
      }
     }
     JOINT LeftCollar
     {
      OFFSET 2.921100 9.558500 0.000000
      CHANNELS 3 Yrotation Xrotation Zrotation
      JOINT LeftShoulder
      {
       OFFSET 13.519700 0.000000 0.000000
       CHANNELS 3 Yrotation Xrotation Zrotation
       JOINT LeftElbow
       {
        OFFSET 0.000000 -29.696600 0.000000
        CHANNELS 3 Yrotation Xrotation Zrotation
        JOINT LeftWrist
        {
         OFFSET 0.000000 -24.004700 0.000000
         CHANNELS 3 Yrotation Xrotation Zrotation
         End Site
         {
          OFFSET 0.000000 -17.728500 0.000000
         }
        }
       }
      }
     }
    }
   }
  }
 }
 JOINT RightHip
 {
  OFFSET -7.771700 -0.012900 -0.001300
  CHANNELS 3 Yrotation Xrotation Zrotation
  JOINT RightKnee
  {
   OFFSET 0.000000 -40.869800 0.001200
   CHANNELS 3 Yrotation Xrotation Zrotation
   JOINT RightAnkle
   {
    OFFSET 0.000000 -39.717900 0.002100
    CHANNELS 3 Yrotation Xrotation Zrotation
    JOINT RightToe
    {
     OFFSET 0.000000 -4.965400 11.033500
     CHANNELS 3 Yrotation Xrotation Zrotation
     End Site
     {
      OFFSET 0.000000 -1.423100 5.872300
     }
    }
   }
  }
 }
 JOINT LeftHip
 {
  OFFSET 7.771700 -0.012900 -0.001300
  CHANNELS 3 Yrotation Xrotation Zrotation
  JOINT LeftKnee
  {
   OFFSET 0.000000 -40.869800 0.001200
   CHANNELS 3 Yrotation Xrotation Zrotation
   JOINT LeftAnkle
   {
    OFFSET 0.000000 -39.717900 0.002100
    CHANNELS 3 Yrotation Xrotation Zrotation
    JOINT LeftToe
    {
     OFFSET 0.000000 -4.965400 11.033500
     CHANNELS 3 Yrotation Xrotation Zrotation
     End Site
     {
      OFFSET 0.000000 -1.423100 5.872300
     }
    }
   }
  }
 }
}
MOTION
Frames: 5
Frame Time: 0.008333
0.000000 85.388000 0.000000 0.000000 -5.767877 0.000000 0.000000 11.653817 0.000000 0.000000 -5.885947 0.000000 0.000000 -0.000000 0.000000 0.000000 -0.000000 0.000000 0.000000 12.528835 0.000000 0.000000 0.711642 0.000000 0.000000 -0.000000 0.000000 0.000000 0.000000 -90.000000 0.000000 -2.309062 0.000000 0.000000 2.309062 0.000000 0.000000 -0.000000 0.000000 0.000000 -0.000000 90.000000 0.000000 -2.309062 0.000000 0.000000 2.309062 0.000000 0.000000 8.520406 0.000000 0.000000 1.905762 0.000000 -0.000000 -4.658285 0.000000 0.000000 -0.000000 0.000000 0.000000 8.520406 0.000000 0.000000 1.905762 0.000000 -0.000000 -4.658285 0.000000 0.000000 -0.000000 0.000000
-289.029438 60.735263 -88.405898 158.844062 -19.568113 4.548407 4.077625 18.092727 4.670184 0.403818 1.990177 0.584186 0.649644 3.474264 0.939285 3.446538 15.537842 4.635304 0.095788 13.860735 2.752604 -0.523713 -11.145464 2.859340 7.993122 -0.159140 -7.780370 28.790418 -24.261400 -33.916937 32.031869 -43.701185 -15.475434 6.139433 9.610799 -36.762490 -12.577735 -9.215364 -0.937360 -23.271067 -15.229709 21.453341 -56.993317 -38.479082 29.189125 -0.959085 -13.189660 32.634837 -2.705308 -49.801433 9.719295 -43.847644 64.847785 -48.950783 5.920578 -4.169076 3.927269 -0.879028 -0.709855 -0.313676 19.322530 -47.076086 -6.900131 27.745367 64.762416 27.392845 -16.717855 -14.728608 3.011170 1.277766 0.652601 0.553815
-289.030462 60.724210 -88.383213 158.750054 -19.594330 4.617438 4.164509 17.926504 4.673775 0.385163 2.132409 0.559050 0.666962 3.412524 0.948349 3.448392 15.590344 4.633956 0.161611 13.826687 2.740501 -0.488761 -11.115147 2.841389 8.143259 -0.178030 -7.668919 28.826785 -24.390578 -33.959395 31.683677 -43.365586 -15.283963 6.156728 9.818921 -36.526869 -12.565371 -9.217625 -0.997750 -23.239812 -15.420027 21.436232 -56.671829 -38.318336 28.989545 -1.029384 -13.014011 32.318194 -2.516906 -49.798114 9.659867 -43.789005 64.835115 -48.923411 5.914631 -4.136095 3.854705 -0.936339 -0.697626 -0.225792 19.348884 -47.056341 -6.852689 27.749877 64.770040 27.365625 -16.854688 -14.680549 2.985747 1.272440 0.625243 0.563590
-289.025749 60.712501 -88.356760 158.679918 -19.640941 4.652148 4.231388 17.840374 4.693393 0.389807 2.128743 0.558706 0.667715 3.436008 0.943338 3.493696 15.544024 4.641094 0.180034 13.884210 2.730883 -0.448460 -11.087977 2.822158 8.242528 -0.106238 -7.547006 28.855469 -24.499089 -33.993738 31.355932 -43.052686 -15.103607 6.165684 10.004482 -36.313342 -12.624137 -9.094051 -1.051652 -23.186206 -15.637602 21.424877 -56.390353 -38.169320 28.828434 -1.114422 -12.813545 31.983042 -2.354326 -49.777213 9.631386 -43.763197 64.825569 -48.899881 5.857472 -4.111228 3.758724 -0.959081 -0.683144 -0.137466 19.318181 -47.029559 -6.763999 27.751707 64.776149 27.336945 -16.920898 -14.645774 2.962688 1.259885 0.612540 0.562895
-289.016762 60.701446 -88.329009 158.596985 -19.710506 4.675660 4.313670 17.808111 4.723043 0.397691 2.096453 0.563311 0.668231 3.459527 0.938402 3.535963 15.494864 4.647037 0.203572 13.941273 2.722860 -0.404121 -11.063368 2.802827 8.339699 -0.033657 -7.426377 28.879149 -24.585619 -34.025554 31.049341 -42.765576 -14.935420 6.170149 10.164443 -36.126941 -12.654907 -9.002597 -1.152191 -23.165994 -15.791284 21.455095 -56.140323 -38.038597 28.701474 -1.219364 -12.580715 31.625470 -2.162927 -49.732737 9.609091 -43.715348 64.827669 -48.829453 5.740620 -4.083449 3.639565 -0.941585 -0.668334 -0.046270 19.273263 -46.987175 -6.642138 27.776138 64.790312 27.315796 -16.907288 -14.619143 2.954013 1.287793 0.597844 0.561089
